<svg version="1.1" id="Layer_1" xmlns="http://www.w3.org/2000/svg" xmlns:xlink="http://www.w3.org/1999/xlink" x="0px" y="0px"
	 width="100%" viewBox="0 0 4096 4096" enable-background="new 0 0 4096 4096" xml:space="preserve">
<path fill="#FEFEFD" opacity="1.000000" stroke="none" 
	d="
M2264.000000,4098.000000 
	C1509.333374,4098.000000 755.666687,4098.000000 2.000000,4098.000000 
	C2.000000,2732.666748 2.000000,1367.333374 2.000000,2.000000 
	C1367.333374,2.000000 2732.666748,2.000000 4098.000000,2.000000 
	C4098.000000,1367.333374 4098.000000,2732.666748 4098.000000,4098.000000 
	C3487.000000,4098.000000 2876.000000,4098.000000 2264.000000,4098.000000 
M3076.549316,3445.737305 
	C3079.107178,3446.435791 3081.760986,3446.893799 3084.208008,3447.869873 
	C3111.986084,3458.954590 3140.945312,3464.668945 3170.651855,3466.965576 
	C3208.686035,3469.906006 3245.928955,3466.240723 3281.528564,3451.902832 
	C3319.868408,3436.461426 3348.938721,3410.682129 3365.718506,3372.381348 
	C3376.552490,3347.652344 3381.080566,3321.448242 3381.369629,3294.545898 
	C3381.677490,3265.891846 3381.679443,3237.233643 3381.723145,3208.577393 
	C3381.837891,3132.937012 3381.906982,3057.296875 3381.976807,2981.656494 
	C3381.980957,2977.134277 3381.834961,2972.612061 3381.759766,2968.153809 
	C3349.547607,2968.153809 3318.656250,2968.153809 3287.036865,2968.153809 
	C3286.872803,2979.240479 3287.600586,2989.968994 3284.311279,3000.881348 
	C3281.130371,2998.718994 3279.279297,2995.889648 3276.926514,2993.568604 
	C3265.406250,2982.204834 3252.138184,2973.502686 3237.014893,2967.607178 
	C3207.769775,2956.206299 3177.818604,2955.499512 3147.625977,2962.341309 
	C3082.896973,2977.008545 3042.164551,3018.121826 3022.186279,3080.052246 
	C3010.407227,3116.566650 3010.503418,3154.302490 3018.562256,3191.724609 
	C3025.972900,3226.135742 3042.071289,3256.347656 3068.112793,3280.116699 
	C3101.082275,3310.208984 3140.908936,3321.903809 3185.122559,3319.017090 
	C3218.281982,3316.852295 3247.023926,3304.321777 3270.975342,3281.121582 
	C3273.696289,3278.486084 3276.386230,3275.818848 3280.708008,3271.579346 
	C3279.792480,3292.323730 3281.389160,3310.829346 3276.938721,3329.073975 
	C3271.508789,3351.333740 3258.231934,3366.898682 3237.400635,3376.179688 
	C3221.593506,3383.221680 3204.823486,3385.743164 3187.750732,3385.785645 
	C3147.467285,3385.886230 3110.249512,3374.674805 3075.694580,3354.223389 
	C3072.129395,3352.113037 3068.576416,3349.981934 3065.159180,3347.945068 
	C3056.072266,3366.587891 3047.495850,3384.235107 3038.866455,3401.856201 
	C3036.125000,3407.454346 3033.243652,3412.984375 3030.176270,3420.061768 
	C3044.007324,3430.755371 3059.915283,3437.581299 3076.549316,3445.737305 
M1029.443481,1844.393066 
	C1013.372253,1881.827148 1004.674561,1920.833984 1003.490601,1961.623413 
	C1001.644043,2025.244507 1018.271729,2083.876953 1053.348022,2136.496826 
	C1092.220459,2194.812012 1145.670288,2235.222900 1212.169678,2258.256104 
	C1263.789185,2276.135742 1316.011108,2280.314697 1369.445801,2267.802490 
	C1409.150391,2258.505371 1445.937378,2242.809326 1479.203979,2219.155518 
	C1508.263794,2198.492920 1532.726562,2173.323242 1553.147461,2144.049805 
	C1572.556519,2116.227051 1588.197266,2086.475586 1597.479492,2053.923584 
	C1609.757690,2010.865234 1612.764771,1967.025879 1606.595093,1922.358643 
	C1600.141968,1875.639893 1584.710205,1832.419556 1558.674194,1793.382935 
	C1507.191772,1716.193848 1434.221558,1672.597534 1342.779175,1660.572388 
	C1266.197144,1650.501831 1196.761475,1671.235718 1134.178345,1715.147705 
	C1087.613037,1747.820435 1053.489502,1791.203125 1029.443481,1844.393066 
M820.106750,3093.276855 
	C843.162598,3170.341309 866.218445,3247.405762 889.132996,3323.998047 
	C927.477905,3323.998047 965.017090,3323.998047 1003.300781,3323.998047 
	C1036.796143,3219.889404 1070.136108,3116.263916 1103.476074,3012.638184 
	C1104.026245,3012.591553 1104.576416,3012.544922 1105.126465,3012.498047 
	C1137.835571,3116.350830 1170.544556,3220.203613 1203.199097,3323.883789 
	C1240.277710,3323.883789 1276.792236,3323.883789 1313.310791,3323.883789 
	C1366.166748,3158.859131 1418.827393,2994.444092 1471.718140,2829.310547 
	C1434.979736,2829.310547 1398.873047,2829.310547 1362.385010,2829.310547 
	C1327.693726,2944.575439 1293.167358,3059.292480 1258.240601,3175.339844 
	C1223.843628,3058.859863 1189.885864,2943.866943 1156.215332,2829.846924 
	C1124.244995,2829.846924 1093.747437,2829.846924 1063.379272,2829.846924 
	C1028.947998,2945.230957 994.802979,3059.655518 960.194641,3175.632812 
	C927.043335,3059.109619 894.407349,2944.397705 861.865479,2830.016602 
	C840.417786,2827.582764 748.441833,2828.294678 740.945740,2830.770020 
	C750.662354,2861.892090 760.658752,2892.925537 770.031128,2924.146484 
	C786.781555,2979.944824 803.155640,3035.855957 820.106750,3093.276855 
M1814.657227,1680.027832 
	C1789.973755,1673.499756 1767.768066,1678.989014 1747.843872,1694.309082 
	C1732.145020,1706.380005 1719.003662,1720.792480 1708.115845,1737.480591 
	C1681.663330,1778.025269 1665.845215,1822.707520 1656.875122,1869.829224 
	C1640.968994,1953.386475 1643.307129,2036.232300 1669.993286,2117.569092 
	C1683.651001,2159.197510 1703.101807,2197.661621 1736.425415,2227.380371 
	C1767.535400,2255.125000 1801.089966,2259.707764 1836.268066,2238.009033 
	C1859.242310,2223.837891 1875.884155,2203.583984 1889.632690,2180.820557 
	C1912.288574,2143.308838 1925.924805,2102.364746 1934.309814,2059.604736 
	C1947.428711,1992.704102 1947.225464,1925.772949 1932.878906,1859.090698 
	C1923.203857,1814.120728 1907.393188,1771.514771 1880.519897,1733.688232 
	C1863.872925,1710.256104 1844.429688,1689.986084 1814.657227,1680.027832 
M2379.475098,3007.530273 
	C2353.501465,2978.823975 2320.920410,2962.596924 2282.734375,2958.687500 
	C2233.110107,2953.607422 2190.318848,2968.383301 2155.546875,3008.302002 
	C2155.546875,2943.149170 2155.546875,2880.447998 2155.546875,2816.881348 
	C2121.430664,2817.294434 2088.008301,2816.434326 2054.979492,2817.269287 
	C2054.979492,2987.145508 2054.979492,3155.613770 2054.979492,3323.907715 
	C2088.152100,3323.907715 2120.596191,3323.907715 2153.424805,3323.907715 
	C2153.424805,3317.149170 2153.186523,3311.144043 2153.493408,3305.166992 
	C2153.784668,3299.490479 2152.335449,3293.562744 2155.311279,3286.727783 
	C2156.801270,3288.759521 2157.476562,3289.944336 2158.394531,3290.894531 
	C2201.672119,3335.681396 2260.017090,3345.475342 2314.561768,3323.456055 
	C2362.186523,3304.229736 2393.450684,3268.927002 2409.860840,3220.526367 
	C2425.344971,3174.856934 2426.458740,3128.385986 2415.766357,3081.587891 
	C2409.604248,3054.618164 2398.442627,3029.905518 2379.475098,3007.530273 
M2981.825439,3198.890381 
	C2990.629395,3165.762939 2991.420898,3132.455566 2984.069824,3098.965332 
	C2972.610840,3046.761719 2943.496826,3007.260742 2896.657959,2981.989014 
	C2850.813477,2957.253418 2801.865234,2952.086670 2751.272461,2964.620605 
	C2704.917236,2976.104736 2667.334473,3001.302979 2642.331055,3041.873047 
	C2605.014160,3102.422363 2602.096436,3166.448242 2631.431885,3230.993896 
	C2655.238037,3283.374023 2697.930420,3313.769775 2752.734863,3328.010010 
	C2781.594727,3335.508545 2810.784912,3335.392822 2839.957031,3329.575684 
	C2875.440674,3322.500000 2906.776855,3307.107910 2932.905762,3281.907471 
	C2956.425537,3259.222900 2972.642090,3232.021973 2981.825439,3198.890381 
M1900.293091,3141.845215 
	C1898.844849,3139.642578 1897.396729,3137.439941 1895.703125,3134.864258 
	C1933.943726,3079.604248 1972.759155,3024.909668 2010.987427,2968.181885 
	C1972.946533,2968.181885 1936.775391,2968.181885 1900.756714,2968.181885 
	C1879.704102,3000.341797 1858.804199,3032.268311 1837.613770,3064.638916 
	C1836.258179,3063.460938 1835.065430,3062.811523 1834.422241,3061.809326 
	C1815.901123,3032.964844 1797.258057,3004.195312 1779.117310,2975.112549 
	C1775.699097,2969.632568 1772.328735,2967.432617 1765.745850,2967.504639 
	C1731.101562,2967.884766 1696.450928,2967.687500 1661.802490,2967.717285 
	C1659.319214,2967.719238 1656.836182,2967.935059 1652.927612,2968.118408 
	C1693.886353,3025.197510 1733.930542,3081.001953 1773.765381,3136.514648 
	C1770.891357,3140.535645 1768.753784,3143.495117 1766.648193,3146.477295 
	C1741.491333,3182.103271 1716.330688,3217.726807 1691.189331,3253.363770 
	C1676.218628,3274.584473 1661.255859,3295.810791 1646.362183,3317.085693 
	C1644.773315,3319.355225 1643.674561,3321.968262 1642.276245,3324.555908 
	C1681.242188,3324.555908 1719.161255,3324.555908 1757.226807,3324.555908 
	C1782.533813,3285.530518 1807.617676,3246.849121 1832.892456,3207.873291 
	C1858.392456,3247.302490 1883.473633,3286.083984 1908.051025,3324.086670 
	C1948.769043,3324.086670 1988.543945,3324.086670 2028.531860,3324.086670 
	C2028.120117,3322.804688 2028.058838,3322.086426 2027.701050,3321.575928 
	C2008.021851,3293.490723 1988.421753,3265.349121 1968.588623,3237.372803 
	C1946.251221,3205.863770 1923.701538,3174.505127 1900.293091,3141.845215 
M2467.420410,3124.998047 
	C2467.420410,3191.235840 2467.420410,3257.473633 2467.420410,3323.952637 
	C2501.921875,3323.952637 2535.456299,3323.952637 2569.006104,3323.952637 
	C2569.006104,3154.540527 2569.006104,2985.523682 2569.006104,2816.781250 
	C2534.860352,2816.781250 2501.606934,2816.781250 2467.422852,2816.781250 
	C2467.422852,2919.219727 2467.422852,3021.108887 2467.420410,3124.998047 
M1978.943237,1937.126465 
	C1976.802979,1996.577881 1980.304077,2055.668213 1990.516602,2114.305176 
	C1995.086792,2140.545898 2000.341919,2166.680664 2010.210938,2191.524414 
	C2013.729614,2200.382812 2018.490601,2208.937500 2023.893311,2216.800293 
	C2028.663940,2223.742920 2033.211060,2223.503906 2038.063110,2216.412354 
	C2042.531860,2209.880859 2046.135010,2202.646973 2049.333496,2195.376465 
	C2059.724121,2171.759521 2064.707520,2146.530762 2070.173828,2121.521973 
	C2076.721436,2091.564697 2080.558838,2061.185059 2082.735107,2030.575317 
	C2086.237549,1981.306030 2086.689209,1932.049072 2082.661621,1882.807129 
	C2078.686768,1834.213135 2069.287842,1786.595825 2055.607178,1739.838745 
	C2053.099609,1731.268311 2049.449707,1722.977417 2045.710327,1714.841064 
	C2043.232910,1709.450806 2040.009399,1704.220093 2033.504272,1702.169189 
	C2023.171265,1705.660889 2019.497681,1714.803223 2015.766479,1723.655273 
	C2006.027588,1746.759399 2000.403687,1771.030762 1995.325439,1795.508789 
	C1985.762939,1841.602539 1980.343872,1888.138550 1978.943237,1937.126465 
M1604.230713,3324.472656 
	C1605.645752,3323.520996 1607.875244,3322.834961 1608.291748,3321.557861 
	C1608.979858,3319.447754 1608.505249,3316.956055 1608.508057,3314.625244 
	C1608.640869,3203.734863 1608.772583,3092.844238 1608.903320,2981.953857 
	C1608.908691,2977.376953 1608.903931,2972.800293 1608.903931,2968.310059 
	C1573.796021,2968.310059 1539.626343,2968.310059 1504.887817,2968.310059 
	C1504.887817,3087.256836 1504.887817,3205.600586 1504.887817,3324.475098 
	C1537.812988,3324.475098 1570.090210,3324.475098 1604.230713,3324.472656 
M1582.956055,2918.269531 
	C1585.317261,2917.050049 1587.766113,2915.973633 1590.026001,2914.588867 
	C1609.915283,2902.402588 1620.620239,2880.305176 1617.163086,2858.715088 
	C1610.652832,2818.058350 1562.325684,2796.972656 1527.263428,2819.564209 
	C1506.967896,2832.641357 1498.735596,2851.648193 1501.807495,2875.189697 
	C1504.638062,2896.882812 1517.155151,2911.475098 1537.524780,2919.308594 
	C1552.233887,2924.965576 1566.911133,2923.285400 1582.956055,2918.269531 
z"/>
<path fill="#040402" opacity="1.000000" stroke="none" 
	d="
M1029.729980,1843.686768 
	C1053.489502,1791.203125 1087.613037,1747.820435 1134.178345,1715.147705 
	C1196.761475,1671.235718 1266.197144,1650.501831 1342.779175,1660.572388 
	C1434.221558,1672.597534 1507.191772,1716.193848 1558.674194,1793.382935 
	C1584.710205,1832.419556 1600.141968,1875.639893 1606.595093,1922.358643 
	C1612.764771,1967.025879 1609.757690,2010.865234 1597.479492,2053.923584 
	C1588.197266,2086.475586 1572.556519,2116.227051 1553.147461,2144.049805 
	C1532.726562,2173.323242 1508.263794,2198.492920 1479.203979,2219.155518 
	C1445.937378,2242.809326 1409.150391,2258.505371 1369.445801,2267.802490 
	C1316.011108,2280.314697 1263.789185,2276.135742 1212.169678,2258.256104 
	C1145.670288,2235.222900 1092.220459,2194.812012 1053.348022,2136.496826 
	C1018.271729,2083.876953 1001.644043,2025.244507 1003.490601,1961.623413 
	C1004.674561,1920.833984 1013.372253,1881.827148 1029.729980,1843.686768 
z"/>
<path fill="#030303" opacity="1.000000" stroke="none" 
	d="
M819.896912,3092.498535 
	C803.155640,3035.855957 786.781555,2979.944824 770.031128,2924.146484 
	C760.658752,2892.925537 750.662354,2861.892090 740.945740,2830.770020 
	C748.441833,2828.294678 840.417786,2827.582764 861.865479,2830.016602 
	C894.407349,2944.397705 927.043335,3059.109619 960.194641,3175.632812 
	C994.802979,3059.655518 1028.947998,2945.230957 1063.379272,2829.846924 
	C1093.747437,2829.846924 1124.244995,2829.846924 1156.215332,2829.846924 
	C1189.885864,2943.866943 1223.843628,3058.859863 1258.240601,3175.339844 
	C1293.167358,3059.292480 1327.693726,2944.575439 1362.385010,2829.310547 
	C1398.873047,2829.310547 1434.979736,2829.310547 1471.718140,2829.310547 
	C1418.827393,2994.444092 1366.166748,3158.859131 1313.310791,3323.883789 
	C1276.792236,3323.883789 1240.277710,3323.883789 1203.199097,3323.883789 
	C1170.544556,3220.203613 1137.835571,3116.350830 1105.126465,3012.498047 
	C1104.576416,3012.544922 1104.026245,3012.591553 1103.476074,3012.638184 
	C1070.136108,3116.263916 1036.796143,3219.889404 1003.300781,3323.998047 
	C965.017090,3323.998047 927.477905,3323.998047 889.132996,3323.998047 
	C866.218445,3247.405762 843.162598,3170.341309 819.896912,3092.498535 
z"/>
<path fill="#030302" opacity="1.000000" stroke="none" 
	d="
M1815.439941,1680.214600 
	C1844.429688,1689.986084 1863.872925,1710.256104 1880.519897,1733.688232 
	C1907.393188,1771.514771 1923.203857,1814.120728 1932.878906,1859.090698 
	C1947.225464,1925.772949 1947.428711,1992.704102 1934.309814,2059.604736 
	C1925.924805,2102.364746 1912.288574,2143.308838 1889.632690,2180.820557 
	C1875.884155,2203.583984 1859.242310,2223.837891 1836.268066,2238.009033 
	C1801.089966,2259.707764 1767.535400,2255.125000 1736.425415,2227.380371 
	C1703.101807,2197.661621 1683.651001,2159.197510 1669.993286,2117.569092 
	C1643.307129,2036.232300 1640.968994,1953.386475 1656.875122,1869.829224 
	C1665.845215,1822.707520 1681.663330,1778.025269 1708.115845,1737.480591 
	C1719.003662,1720.792480 1732.145020,1706.380005 1747.843872,1694.309082 
	C1767.768066,1678.989014 1789.973755,1673.499756 1815.439941,1680.214600 
z"/>
<path fill="#030303" opacity="1.000000" stroke="none" 
	d="
M3030.426270,3418.545654 
	C3033.243652,3412.984375 3036.125000,3407.454346 3038.866455,3401.856201 
	C3047.495850,3384.235107 3056.072266,3366.587891 3065.159180,3347.945068 
	C3068.576416,3349.981934 3072.129395,3352.113037 3075.694580,3354.223389 
	C3110.249512,3374.674805 3147.467285,3385.886230 3187.750732,3385.785645 
	C3204.823486,3385.743164 3221.593506,3383.221680 3237.400635,3376.179688 
	C3258.231934,3366.898682 3271.508789,3351.333740 3276.938721,3329.073975 
	C3281.389160,3310.829346 3279.792480,3292.323730 3280.708008,3271.579346 
	C3276.386230,3275.818848 3273.696289,3278.486084 3270.975342,3281.121582 
	C3247.023926,3304.321777 3218.281982,3316.852295 3185.122559,3319.017090 
	C3140.908936,3321.903809 3101.082275,3310.208984 3068.112793,3280.116699 
	C3042.071289,3256.347656 3025.972900,3226.135742 3018.562256,3191.724609 
	C3010.503418,3154.302490 3010.407227,3116.566650 3022.186279,3080.052246 
	C3042.164551,3018.121826 3082.896973,2977.008545 3147.625977,2962.341309 
	C3177.818604,2955.499512 3207.769775,2956.206299 3237.014893,2967.607178 
	C3252.138184,2973.502686 3265.406250,2982.204834 3276.926514,2993.568604 
	C3279.279297,2995.889648 3281.130371,2998.718994 3284.311279,3000.881348 
	C3287.600586,2989.968994 3286.872803,2979.240479 3287.036865,2968.153809 
	C3318.656250,2968.153809 3349.547607,2968.153809 3381.759766,2968.153809 
	C3381.834961,2972.612061 3381.980957,2977.134277 3381.976807,2981.656494 
	C3381.906982,3057.296875 3381.837891,3132.937012 3381.723145,3208.577393 
	C3381.679443,3237.233643 3381.677490,3265.891846 3381.369629,3294.545898 
	C3381.080566,3321.448242 3376.552490,3347.652344 3365.718506,3372.381348 
	C3348.938721,3410.682129 3319.868408,3436.461426 3281.528564,3451.902832 
	C3245.928955,3466.240723 3208.686035,3469.906006 3170.651855,3466.965576 
	C3140.945312,3464.668945 3111.986084,3458.954590 3084.208008,3447.869873 
	C3081.760986,3446.893799 3079.107178,3446.435791 3076.520508,3444.559326 
	C3078.098145,3442.198730 3079.704590,3441.016357 3081.586670,3439.631104 
	C3080.241211,3438.798584 3079.715820,3438.412354 3079.140625,3438.126953 
	C3069.364502,3433.273926 3058.914795,3429.809570 3050.097168,3422.989502 
	C3044.403076,3418.584717 3038.127441,3414.920166 3030.426270,3418.545654 
M3174.219238,3044.861816 
	C3154.568604,3051.578369 3140.606445,3064.732422 3131.608154,3083.182861 
	C3113.229980,3120.864746 3112.997314,3159.316650 3130.529053,3196.873291 
	C3150.860107,3240.425293 3194.406006,3249.548340 3227.561768,3237.517090 
	C3253.964355,3227.936523 3271.124268,3208.262207 3279.075195,3181.603760 
	C3287.554443,3153.173584 3286.863037,3124.294189 3277.795654,3096.031006 
	C3269.065918,3068.818848 3251.297852,3050.283936 3222.960693,3043.105225 
	C3207.127686,3039.093994 3191.346680,3039.045410 3174.219238,3044.861816 
z"/>
<path fill="#030403" opacity="1.000000" stroke="none" 
	d="
M2379.925781,3008.078613 
	C2398.442627,3029.905518 2409.604248,3054.618164 2415.766357,3081.587891 
	C2426.458740,3128.385986 2425.344971,3174.856934 2409.860840,3220.526367 
	C2393.450684,3268.927002 2362.186523,3304.229736 2314.561768,3323.456055 
	C2260.017090,3345.475342 2201.672119,3335.681396 2158.394531,3290.894531 
	C2157.476562,3289.944336 2156.801270,3288.759521 2155.311279,3286.727783 
	C2152.335449,3293.562744 2153.784668,3299.490479 2153.493408,3305.166992 
	C2153.186523,3311.144043 2153.424805,3317.149170 2153.424805,3323.907715 
	C2120.596191,3323.907715 2088.152100,3323.907715 2054.979492,3323.907715 
	C2054.979492,3155.613770 2054.979492,2987.145508 2054.979492,2817.269287 
	C2088.008301,2816.434326 2121.430664,2817.294434 2155.546875,2816.881348 
	C2155.546875,2880.447998 2155.546875,2943.149170 2155.546875,3008.302002 
	C2190.318848,2968.383301 2233.110107,2953.607422 2282.734375,2958.687500 
	C2320.920410,2962.596924 2353.501465,2978.823975 2379.925781,3008.078613 
M2317.843994,3150.818604 
	C2317.781494,3145.161621 2317.999512,3139.484863 2317.605469,3133.851074 
	C2316.173828,3113.378174 2311.724609,3093.899170 2300.602051,3076.104248 
	C2276.319824,3037.254150 2235.678955,3033.952881 2208.525146,3044.287109 
	C2179.842773,3055.203857 2164.410156,3077.372803 2157.871582,3106.414062 
	C2153.144287,3127.410645 2153.607422,3148.658691 2155.459229,3169.981445 
	C2156.626953,3183.424805 2160.378174,3195.996826 2165.556152,3208.368896 
	C2186.497070,3258.405518 2256.236084,3268.229248 2291.468750,3226.432129 
	C2309.399414,3205.160400 2316.931152,3180.123291 2317.843994,3150.818604 
z"/>
<path fill="#030303" opacity="1.000000" stroke="none" 
	d="
M2981.629883,3199.684570 
	C2972.642090,3232.021973 2956.425537,3259.222900 2932.905762,3281.907471 
	C2906.776855,3307.107910 2875.440674,3322.500000 2839.957031,3329.575684 
	C2810.784912,3335.392822 2781.594727,3335.508545 2752.734863,3328.010010 
	C2697.930420,3313.769775 2655.238037,3283.374023 2631.431885,3230.993896 
	C2602.096436,3166.448242 2605.014160,3102.422363 2642.331055,3041.873047 
	C2667.334473,3001.302979 2704.917236,2976.104736 2751.272461,2964.620605 
	C2801.865234,2952.086670 2850.813477,2957.253418 2896.657959,2981.989014 
	C2943.496826,3007.260742 2972.610840,3046.761719 2984.069824,3098.965332 
	C2991.420898,3132.455566 2990.629395,3165.762939 2981.629883,3199.684570 
M2869.483398,3210.287842 
	C2889.538574,3173.651855 2891.896729,3135.557861 2877.579102,3096.668945 
	C2869.981934,3076.033691 2856.393066,3059.541260 2836.223389,3049.977051 
	C2800.006104,3032.803467 2755.061279,3042.213867 2731.598145,3083.882080 
	C2718.522461,3107.103760 2715.656738,3132.249023 2717.617188,3158.228027 
	C2719.298584,3180.504395 2725.247559,3201.380615 2739.255371,3219.357910 
	C2759.198975,3244.952881 2791.635986,3255.962402 2821.023438,3247.368164 
	C2841.483887,3241.384766 2856.721924,3228.694580 2869.483398,3210.287842 
z"/>
<path fill="#030303" opacity="1.000000" stroke="none" 
	d="
M1900.768677,3142.463135 
	C1923.701538,3174.505127 1946.251221,3205.863770 1968.588623,3237.372803 
	C1988.421753,3265.349121 2008.021851,3293.490723 2027.701050,3321.575928 
	C2028.058838,3322.086426 2028.120117,3322.804688 2028.531860,3324.086670 
	C1988.543945,3324.086670 1948.769043,3324.086670 1908.051025,3324.086670 
	C1883.473633,3286.083984 1858.392456,3247.302490 1832.892456,3207.873291 
	C1807.617676,3246.849121 1782.533813,3285.530518 1757.226807,3324.555908 
	C1719.161255,3324.555908 1681.242188,3324.555908 1642.276245,3324.555908 
	C1643.674561,3321.968262 1644.773315,3319.355225 1646.362183,3317.085693 
	C1661.255859,3295.810791 1676.218628,3274.584473 1691.189331,3253.363770 
	C1716.330688,3217.726807 1741.491333,3182.103271 1766.648193,3146.477295 
	C1768.753784,3143.495117 1770.891357,3140.535645 1773.765381,3136.514648 
	C1733.930542,3081.001953 1693.886353,3025.197510 1652.927612,2968.118408 
	C1656.836182,2967.935059 1659.319214,2967.719238 1661.802490,2967.717285 
	C1696.450928,2967.687500 1731.101562,2967.884766 1765.745850,2967.504639 
	C1772.328735,2967.432617 1775.699097,2969.632568 1779.117310,2975.112549 
	C1797.258057,3004.195312 1815.901123,3032.964844 1834.422241,3061.809326 
	C1835.065430,3062.811523 1836.258179,3063.460938 1837.613770,3064.638916 
	C1858.804199,3032.268311 1879.704102,3000.341797 1900.756714,2968.181885 
	C1936.775391,2968.181885 1972.946533,2968.181885 2010.987427,2968.181885 
	C1972.759155,3024.909668 1933.943726,3079.604248 1895.703125,3134.864258 
	C1897.396729,3137.439941 1898.844849,3139.642578 1900.768677,3142.463135 
z"/>
<path fill="#030403" opacity="1.000000" stroke="none" 
	d="
M2467.421631,3123.998047 
	C2467.422852,3021.108887 2467.422852,2919.219727 2467.422852,2816.781250 
	C2501.606934,2816.781250 2534.860352,2816.781250 2569.006104,2816.781250 
	C2569.006104,2985.523682 2569.006104,3154.540527 2569.006104,3323.952637 
	C2535.456299,3323.952637 2501.921875,3323.952637 2467.420410,3323.952637 
	C2467.420410,3257.473633 2467.420410,3191.235840 2467.421631,3123.998047 
z"/>
<path fill="#040404" opacity="1.000000" stroke="none" 
	d="
M1978.952148,1936.147827 
	C1980.343872,1888.138550 1985.762939,1841.602539 1995.325439,1795.508789 
	C2000.403687,1771.030762 2006.027588,1746.759399 2015.766479,1723.655273 
	C2019.497681,1714.803223 2023.171265,1705.660889 2033.504272,1702.169189 
	C2040.009399,1704.220093 2043.232910,1709.450806 2045.710327,1714.841064 
	C2049.449707,1722.977417 2053.099609,1731.268311 2055.607178,1739.838745 
	C2069.287842,1786.595825 2078.686768,1834.213135 2082.661621,1882.807129 
	C2086.689209,1932.049072 2086.237549,1981.306030 2082.735107,2030.575317 
	C2080.558838,2061.185059 2076.721436,2091.564697 2070.173828,2121.521973 
	C2064.707520,2146.530762 2059.724121,2171.759521 2049.333496,2195.376465 
	C2046.135010,2202.646973 2042.531860,2209.880859 2038.063110,2216.412354 
	C2033.211060,2223.503906 2028.663940,2223.742920 2023.893311,2216.800293 
	C2018.490601,2208.937500 2013.729614,2200.382812 2010.210938,2191.524414 
	C2000.341919,2166.680664 1995.086792,2140.545898 1990.516602,2114.305176 
	C1980.304077,2055.668213 1976.802979,1996.577881 1978.952148,1936.147827 
z"/>
<path fill="#030303" opacity="1.000000" stroke="none" 
	d="
M1603.299072,3324.473877 
	C1570.090210,3324.475098 1537.812988,3324.475098 1504.887817,3324.475098 
	C1504.887817,3205.600586 1504.887817,3087.256836 1504.887817,2968.310059 
	C1539.626343,2968.310059 1573.796021,2968.310059 1608.903931,2968.310059 
	C1608.903931,2972.800293 1608.908691,2977.376953 1608.903320,2981.953857 
	C1608.772583,3092.844238 1608.640869,3203.734863 1608.508057,3314.625244 
	C1608.505249,3316.956055 1608.979858,3319.447754 1608.291748,3321.557861 
	C1607.875244,3322.834961 1605.645752,3323.520996 1603.299072,3324.473877 
z"/>
<path fill="#050505" opacity="1.000000" stroke="none" 
	d="
M1582.251465,2918.588867 
	C1566.911133,2923.285400 1552.233887,2924.965576 1537.524780,2919.308594 
	C1517.155151,2911.475098 1504.638062,2896.882812 1501.807495,2875.189697 
	C1498.735596,2851.648193 1506.967896,2832.641357 1527.263428,2819.564209 
	C1562.325684,2796.972656 1610.652832,2818.058350 1617.163086,2858.715088 
	C1620.620239,2880.305176 1609.915283,2902.402588 1590.026001,2914.588867 
	C1587.766113,2915.973633 1585.317261,2917.050049 1582.251465,2918.588867 
z"/>
<path fill="#050505" opacity="1.000000" stroke="none" 
	d="
M3030.301270,3419.303711 
	C3038.127441,3414.920166 3044.403076,3418.584717 3050.097168,3422.989502 
	C3058.914795,3429.809570 3069.364502,3433.273926 3079.140625,3438.126953 
	C3079.715820,3438.412354 3080.241211,3438.798584 3081.586670,3439.631104 
	C3079.704590,3441.016357 3078.098145,3442.198730 3076.122559,3443.959229 
	C3059.915283,3437.581299 3044.007324,3430.755371 3030.301270,3419.303711 
z"/>
<path fill="#FCFCFC" opacity="1.000000" stroke="none" 
	d="
M3174.975586,3044.601562 
	C3191.346680,3039.045410 3207.127686,3039.093994 3222.960693,3043.105225 
	C3251.297852,3050.283936 3269.065918,3068.818848 3277.795654,3096.031006 
	C3286.863037,3124.294189 3287.554443,3153.173584 3279.075195,3181.603760 
	C3271.124268,3208.262207 3253.964355,3227.936523 3227.561768,3237.517090 
	C3194.406006,3249.548340 3150.860107,3240.425293 3130.529053,3196.873291 
	C3112.997314,3159.316650 3113.229980,3120.864746 3131.608154,3083.182861 
	C3140.606445,3064.732422 3154.568604,3051.578369 3174.975586,3044.601562 
z"/>
<path fill="#FCFCFC" opacity="1.000000" stroke="none" 
	d="
M2317.836914,3151.777344 
	C2316.931152,3180.123291 2309.399414,3205.160400 2291.468750,3226.432129 
	C2256.236084,3268.229248 2186.497070,3258.405518 2165.556152,3208.368896 
	C2160.378174,3195.996826 2156.626953,3183.424805 2155.459229,3169.981445 
	C2153.607422,3148.658691 2153.144287,3127.410645 2157.871582,3106.414062 
	C2164.410156,3077.372803 2179.842773,3055.203857 2208.525146,3044.287109 
	C2235.678955,3033.952881 2276.319824,3037.254150 2300.602051,3076.104248 
	C2311.724609,3093.899170 2316.173828,3113.378174 2317.605469,3133.851074 
	C2317.999512,3139.484863 2317.781494,3145.161621 2317.836914,3151.777344 
z"/>
<path fill="#FCFCFC" opacity="1.000000" stroke="none" 
	d="
M2869.045410,3210.872559 
	C2856.721924,3228.694580 2841.483887,3241.384766 2821.023438,3247.368164 
	C2791.635986,3255.962402 2759.198975,3244.952881 2739.255371,3219.357910 
	C2725.247559,3201.380615 2719.298584,3180.504395 2717.617188,3158.228027 
	C2715.656738,3132.249023 2718.522461,3107.103760 2731.598145,3083.882080 
	C2755.061279,3042.213867 2800.006104,3032.803467 2836.223389,3049.977051 
	C2856.393066,3059.541260 2869.981934,3076.033691 2877.579102,3096.668945 
	C2891.896729,3135.557861 2889.538574,3173.651855 2869.045410,3210.872559 
z"/>
</svg>